<svg id="Layer_1" enable-background="new 0 0 512 512" height="512" viewBox="0 0 512 512" width="512" xmlns="http://www.w3.org/2000/svg"><g><g id="XMLID_17_"><g id="XMLID_19_"><g id="XMLID_23_"><g id="XMLID_25_"><g id="XMLID_30_"><g id="XMLID_32_"><g id="XMLID_33_"><g id="XMLID_34_"><g id="XMLID_39_"><g id="XMLID_40_"><g id="XMLID_41_"><g id="XMLID_42_"><g id="XMLID_43_"><g id="XMLID_44_"><circle id="XMLID_45_" cx="256" cy="256" fill="#fed943" r="256"/></g></g></g></g></g></g></g></g></g></g></g></g></g></g><path d="m512 256c0-35.378-7.177-69.079-20.153-99.728l-101.51-101.851s-68.615 83.213-77.671 103.246c-11.488-5.718-50.768 5.104-56.357 5.357l-99.075-98.99-44.917 306.502 117.003 140.085c8.77.908 17.67 1.379 26.68 1.379 141.385 0 256-114.615 256-256z" fill="#edba2b"/><g><path d="m399.62 370.51-4.17 3.22c-17.12 13.21-32.97 27.9-47.39 43.9-12.41 13.77-23.75 28.5-33.91 44.08-3.8 5.81-9.7 9.95-16.5 11.36-23.61 4.9-40.92-7.4-40.92-7.4s-.25.18-.73.48c-.48-.3-.73-.48-.73-.48s-17.32 12.3-40.92 7.4c-6.8-1.41-12.71-5.55-16.5-11.36-10.17-15.58-21.5-30.31-33.91-44.08-14.42-16-30.27-30.69-47.39-43.9l-4.17-3.22c0-.18.02-17.02 7.62-40.18 13.93-42.38 42.04-106.12 62.41-128.97 33.86-37.96 24.37-33.87 72.86-33.87h1.46c48.49 0 39-4.09 72.86 33.87 20.37 22.85 43.62 86.68 57.55 129.06 7.64 23.28 12.48 40.09 12.48 40.09z" fill="#fcf3eb"/><path d="m399.62 370.51-4.17 3.22c-17.12 13.21-32.97 27.9-47.39 43.9-12.41 13.77-23.75 28.5-33.91 44.08-3.8 5.81-9.7 9.95-16.5 11.36-23.61 4.9-40.92-7.4-40.92-7.4s-.25.18-.73.48v-298.66h.73c48.49 0 39-4.09 72.86 33.87 20.37 22.85 43.62 86.68 57.55 129.06 7.64 23.28 12.48 40.09 12.48 40.09z" fill="#e8ded6"/><path d="m381.226 49.14c-27.16-5.25-66.84 78.11-76.39 99.15-11.22-5.2-24.38-5.94-48.11-5.94v.02l-.01-.02h-.716-.004-.716l-.01.02v-.02c-23.73 0-36.89.74-48.11 5.94-9.55-21.04-49.23-104.4-76.39-99.15-23.62 4.57-62.31 91.8-27.26 233.93-5.95 24.78-5.01 53.66 8.81 87.47l5.54-17.72c4.49-14.36 14.4-26.41 27.64-33.58 0 0 .21-18.23 5.75-39.5 5.54-21.26 16.41-45.58 37.75-57.74 22.93-13.08 36 6.56 66.27 6.56h.01c.239 0 .479 0 .718-.02.239.02.479.02.718.02h.01c30.27 0 43.34-19.64 66.27-6.56 21.34 12.16 32.21 36.48 37.75 57.74 5.54 21.27 5.75 39.5 5.75 39.5 13.24 7.17 23.15 19.22 27.64 33.58l5.54 17.72c13.82-33.81 14.76-62.69 8.81-87.47 35.05-142.13-3.64-229.36-27.26-233.93z" fill="#4f4c5e"/><path d="m255.996 142.35v86.19c.24.02.48.02.72.02h.01c30.27 0 43.34-19.64 66.27-6.56 21.34 12.16 32.21 36.48 37.75 57.74 5.54 21.27 5.75 39.5 5.75 39.5 13.24 7.17 23.15 19.22 27.64 33.58l5.54 17.72c13.82-33.81 14.76-62.69 8.81-87.47 35.05-142.13-3.64-229.36-27.26-233.93-27.16-5.25-66.84 78.11-76.39 99.15-11.22-5.2-24.38-5.94-48.11-5.94v.02l-.01-.02z" fill="#3c3a4c"/><g><circle cx="209.656" cy="302.886" fill="#514b40" r="16.357"/><circle cx="301.125" cy="302.886" fill="#3a352e" r="16.357"/></g><path d="m255.996 377.982c-24.512 0-46.059 1.341-39.74 26.743 4.085 16.421 30.083 28.151 39.74 28.151s35.654-11.729 39.74-28.151c6.32-25.403-15.228-26.743-39.74-26.743z" fill="#514b40"/><path d="m295.736 404.719c-4.081 16.432-30.082 28.16-39.738 28.16v-54.893c24.515 0 46.061 1.342 39.738 26.733z" fill="#3a352e"/><g><path d="m183.519 167.004c-4.382 4.569-9.262 9.979-14.973 16.385-11.744 13.167-27.922 29.22-41.597 49.084-13.551-80.235 1.817-121.085 13.582-123.836 13.457-3.146 35.345 41.66 42.988 58.367z" fill="#e298a6"/><path d="m384.755 234.177c-13.914-20.653-30.684-37.246-42.76-50.787-5.285-5.929-9.854-11.007-13.987-15.347 7.165-15.794 29.718-62.624 43.456-59.405 11.848 2.772 27.341 44.182 13.291 125.539z" fill="#d3798e"/></g></g></g></svg>