<?xml version="1.0" encoding="utf-8"?>
<!-- Generator: Adobe Illustrator 23.0.3, SVG Export Plug-In . SVG Version: 6.00 Build 0)  -->
<svg version="1.1" id="Layer_1" xmlns="http://www.w3.org/2000/svg" xmlns:xlink="http://www.w3.org/1999/xlink" x="0px" y="0px"
	 viewBox="0 0 124 27" style="enable-background:new 0 0 124 27;" xml:space="preserve">
<style type="text/css">
	.st0{fill:#FFFFFF;}
	.st1{fill:#B35F49;}
	.st2{fill:#99503D;}
	.st3{fill:#804231;}
</style>
<g>
	<g>
		<path class="st0" d="M44.7,8.1c0-0.5-0.1-0.9-0.4-1.1c-0.3-0.2-0.7-0.3-1.1-0.3c-0.6,0-1,0.3-1.2,0.9c-0.6,1.5-1.3,3.3-2.1,5.2
			c-0.6,1.6-1.1,3-1.5,4.2c-0.5-1.3-1-2.7-1.6-4.3c-0.7-1.9-1.3-3.7-1.9-5.3c-0.1-0.2-0.2-0.4-0.4-0.5c-0.5-0.3-1.1-0.2-1.7,0.2
			C32.1,7.3,32,7.7,32,7.9c0,0.2,0.1,0.5,0.2,0.9c0.1,0.3,0.3,0.8,0.5,1.4l0.3,0.9c0.6,1.5,1.2,3.2,2,5c0.8,1.8,1.4,3.2,1.9,4.2
			c0,0,0,0,0,0.1c0.2,0.2,0.4,0.3,0.7,0.4c0.3,0.1,0.6,0.2,0.9,0.2c0.3,0,0.6-0.1,0.8-0.2c0.2-0.2,0.4-0.4,0.5-0.7l0.7-1.9
			c0.3-0.8,0.5-1.3,0.6-1.6c0,0,0-0.1,0.1-0.1l0,0c0,0,0,0,0,0l0,0c0.7-1.8,1.2-3.3,1.7-4.4c0.4-1.2,0.9-2.2,1.4-3.1
			c0.1-0.2,0.2-0.4,0.2-0.5C44.6,8.5,44.7,8.3,44.7,8.1z"/>
		<path class="st0" d="M51.4,11.2c-0.6-0.2-1.3-0.3-1.9-0.3c-0.6,0-1.3,0.2-2.1,0.5c-0.8,0.3-1.4,0.7-1.7,1.3
			c-0.4,0.5-0.6,1-0.9,1.6c-0.2,0.6-0.3,1.2-0.3,1.8c0,0.7,0.1,1.3,0.3,2c0.2,0.6,0.5,1.1,0.9,1.6c0.5,0.5,1,0.9,1.7,1.1
			c0.7,0.3,1.4,0.4,2.1,0.4c0.4,0,0.8-0.1,1.4-0.2c0.6-0.1,1.1-0.3,1.5-0.5c0.6-0.4,0.8-0.8,0.8-1.1c0-0.3-0.1-0.6-0.3-0.8
			c-0.4-0.4-0.9-0.5-1.8-0.1c-0.4,0.2-0.9,0.2-1.4,0.2c-0.5,0-0.9,0-1.2-0.1c-0.3-0.1-0.5-0.2-0.8-0.5c-0.1-0.1-0.2-0.3-0.4-0.5
			c-0.1-0.1-0.1-0.3-0.1-0.4c0.3,0.1,0.7,0.1,1,0.2c0.5,0.1,0.9,0.1,1.3,0.1c0.5,0,1.1,0,1.6-0.1c0.6-0.1,1-0.3,1.3-0.6
			c0.3-0.3,0.6-0.7,0.8-1c0.2-0.3,0.3-0.7,0.3-1.2c0-0.8-0.3-1.6-0.9-2.4C52.5,11.7,52,11.4,51.4,11.2z M51.1,14.3
			c0,0.1,0,0.3-0.4,0.5c-0.3,0.2-0.8,0.3-1.3,0.3c-1.1,0-1.7-0.1-2-0.1c0-0.1,0.1-0.3,0.1-0.4c0.1-0.1,0.3-0.4,0.5-0.6
			c0.2-0.2,0.4-0.3,0.7-0.5c0.7-0.3,1.3-0.2,1.9,0.2C51,13.9,51.1,14.1,51.1,14.3z"/>
		<path class="st0" d="M61.4,18.4c-0.2,0-0.4,0.1-0.6,0.2c-0.2,0.1-0.4,0.2-0.7,0.2c-0.4,0-0.6-0.1-0.8-0.2
			c-0.2-0.2-0.3-0.5-0.4-0.9c-0.1-0.7-0.2-1.5-0.2-2.6c0-0.6,0-1.1,0-1.6c1,0,1.8-0.1,2.3-0.2c0.6-0.1,1-0.6,1-1.3
			c0-0.3-0.1-0.6-0.4-0.7C61.5,11.1,61.3,11,61,11c-0.3,0-0.7,0-1.2,0c-0.2,0-0.5,0-0.6,0c0.1-0.6,0.1-1.3,0.1-2
			c0-0.6-0.1-1-0.3-1.2c-0.2-0.3-0.5-0.4-1-0.4c-0.4,0-0.7,0.1-1,0.3c-0.3,0.2-0.5,0.5-0.5,1c0,0.1,0,0.2,0,0.4c0,0.2,0,0.3,0,0.5
			c0,0.5,0,1-0.1,1.5c-0.8,0-1.3,0.1-1.5,0.3c-0.1,0.1-0.2,0.3-0.3,0.4c-0.1,0.2-0.1,0.3-0.1,0.4c0,0.3,0.1,0.5,0.3,0.7
			c0.2,0.2,0.4,0.3,0.7,0.4c0,0,0,0,0,0l0.8,0.1c0,0.8-0.1,1.4-0.1,1.9c0,1.3,0.1,2.3,0.2,3c0.1,0.4,0.2,0.7,0.3,1
			c0.2,0.5,0.2,0.5,0.3,0.6c0.3,0.3,0.7,0.6,1.2,0.8c0.5,0.2,0.9,0.3,1.4,0.3c0.7,0,1.4-0.2,1.8-0.4c0.5-0.3,0.8-0.7,0.8-1.3
			c0-0.3-0.1-0.5-0.2-0.7C62,18.6,61.8,18.4,61.4,18.4z"/>
		<path class="st0" d="M80,16.7c-0.5,0-0.9,0.2-1.2,0.5c0,0,0,0.1-0.1,0.1c-0.4,0.4-0.9,0.7-1.5,0.9c-2.1,0.6-3.7,0.3-4.8-1
			c-0.7-0.9-1.1-1.9-1.1-3.1c0-1.5,0.4-2.8,1.1-3.7c0.3-0.4,0.8-0.7,1.5-1c1.4-0.5,2.6-0.6,3.2,0c0.4,0.3,0.7,0.7,0.9,1.1
			c0.1,0.2,0.3,0.4,0.6,0.5c0.2,0.1,0.5,0.2,0.8,0.2c0.3,0,0.6-0.1,0.9-0.4c0.3-0.3,0.4-0.6,0.4-0.8c0-0.2-0.1-0.4-0.2-0.6
			c-0.1-0.2-0.3-0.4-0.5-0.7c-0.4-0.5-0.8-0.9-1.2-1.3c-0.4-0.3-0.8-0.6-1.3-0.8c-1.1-0.4-2.7-0.4-4.5,0.1c-1,0.2-1.8,0.6-2.3,1.1
			C70,8.6,69.4,9.6,69,10.8c-0.4,1.2-0.6,2.4-0.6,3.7c0,0.5,0.1,1.2,0.4,2c0.3,0.8,0.6,1.5,0.9,1.9c0.6,0.7,1.4,1.4,2.3,1.9
			c0.9,0.5,1.9,0.7,3,0.7c1.2,0,2.3-0.1,3.3-0.4c1-0.3,1.8-0.8,2.4-1.5c0.2-0.2,0.3-0.4,0.4-0.6c0.1-0.2,0.1-0.4,0.1-0.7
			c0-0.3-0.1-0.6-0.4-0.8C80.6,16.8,80.3,16.7,80,16.7z"/>
		<path class="st0" d="M87.2,18.8c-0.1,0-0.3,0-0.4,0c-0.1,0-0.2,0-0.4,0c-0.1,0-0.3,0-0.4-0.3c0,0,0,0,0,0
			c-0.1-0.3-0.2-0.6-0.2-1.2c0-1.8,0.1-4,0.2-6.6c0-0.3,0-0.8,0-1.5C86,8.8,86,8.2,86,7.6c0-0.3,0-0.6,0-0.8c0-0.2-0.1-0.4-0.1-0.6
			c-0.1-0.2-0.3-0.4-0.5-0.5c-0.4-0.2-1-0.2-1.5,0.1c-0.3,0.1-0.4,0.3-0.6,0.6c-0.1,0.3-0.1,0.8-0.1,1.5c0,2.1,0,3.8-0.1,5.2
			C83,14.3,83,15.7,83,17.4c0,0.8,0.1,1.5,0.4,2.1c0.3,0.6,0.7,1,1.1,1.3c0.4,0.3,0.9,0.4,1.3,0.4c0.6,0,1.1-0.1,1.5-0.3
			c0.4-0.2,0.6-0.6,0.6-1.1c0-0.2-0.1-0.5-0.2-0.6C87.6,18.8,87.3,18.8,87.2,18.8z"/>
		<path class="st0" d="M92.4,17v-4.6c0-0.5-0.1-0.8-0.3-1.1C91.8,11.1,91.5,11,91,11c-0.4,0-0.7,0.1-1,0.3c-0.3,0.2-0.5,0.5-0.5,0.9
			c0,0.5,0,1.5,0.1,2.8c0.1,1.5,0.1,2.9,0.1,4c0,0.4,0,0.8,0.1,1.4c0.1,0.2,0.3,0.4,0.7,0.6c0.3,0.1,0.6,0.2,0.9,0.2
			c0.2,0,0.5-0.1,0.7-0.3c0.4-0.2,0.4-0.5,0.4-0.7c-0.1-0.5-0.1-1-0.1-1.5C92.4,18.1,92.4,17.6,92.4,17z"/>
		<path class="st0" d="M90.6,9.4c0.5,0,0.9-0.1,1.3-0.3c0.4-0.2,0.6-0.6,0.6-1c0-0.5-0.2-1-0.7-1.3c0,0,0,0,0,0
			c-0.4-0.2-0.9-0.4-1.5-0.4c-0.5,0-0.8,0.2-0.9,0.6c-0.1,0.3-0.2,0.7-0.2,1.2c0,0.3,0.1,0.6,0.3,0.8C89.8,9.3,90.1,9.4,90.6,9.4z"
			/>
		<path class="st0" d="M105.8,19.1c-0.1-0.1-0.2-0.1-0.4-0.2h0c-0.1,0-0.3-0.1-0.3-0.1c-0.2-0.1-0.5-0.5-0.5-1.7
			c0-0.4,0-0.8,0.1-1.2c0-0.5,0-0.9,0-1.1c0-1.2-0.3-2.1-0.8-2.8c-0.6-0.7-1.3-1.1-2.3-1.1c-1,0-1.8,0.3-2.4,0.8
			c-0.5,0.4-0.9,0.8-1.2,1.2c-0.1-0.3-0.2-0.6-0.3-0.9c-0.2-0.4-0.4-0.6-0.6-0.7c-0.3-0.2-0.5-0.3-0.7-0.3C96,11,95.3,11,94.9,11.2
			c-0.2,0.1-0.5,0.3-0.7,0.5c-0.3,0.2-0.4,0.6-0.4,0.9c0,0.2,0.1,0.5,0.3,0.7c0.3,0.3,0.6,0.4,1.1,0.2c0.1-0.1,0.2-0.1,0.2-0.1
			c0.2,0,0.3,0.2,0.4,0.4c0.2,0.3,0.2,0.6,0.2,0.9l0,1.1c0,0.2,0,0.4,0,0.8c0,0.7-0.1,1.6-0.3,2.6c0,0.2,0,0.4,0,0.5l0,0.4
			c0.2,0.9,0.8,1.1,1.3,1.1c0.3,0,0.7-0.1,0.9-0.3c0.2-0.1,0.4-0.3,0.4-0.6c0-1.9,0.3-3.4,0.6-4.5c0.3-0.8,0.6-1.4,1-1.8
			c0.4-0.4,0.7-0.5,1.2-0.5c0.5,0,0.6,0.2,0.7,0.3c0.1,0.3,0.2,0.7,0.2,1.3c0,0.3,0,0.8,0,1.4c0,0.6,0,1,0,1.2c0,0.5,0,0.8,0.1,1.1
			c0.2,0.7,0.4,1.2,0.8,1.5c0.4,0.4,0.9,0.5,1.5,0.5c0.4,0,0.8-0.1,1.1-0.4c0.3-0.3,0.5-0.7,0.5-1.1C106,19.3,105.9,19.2,105.8,19.1
			z"/>
		<path class="st0" d="M110.6,17.9l-0.1-1.7c-0.1-1.5-0.1-2.5-0.1-3.2c0-0.3,0-0.7-0.1-1.3c0,0,0-0.1,0-0.1
			c-0.1-0.2-0.3-0.4-0.7-0.5c-0.3-0.1-0.6-0.2-0.9-0.2c-0.2,0-0.5,0.1-0.7,0.3c-0.3,0.2-0.4,0.4-0.4,0.7c0,0.1,0.1,0.5,0.1,1.1
			c0.1,0.6,0.1,1.3,0.1,2l0,4.6c0,0.5,0.1,0.8,0.3,1.1c0.2,0.3,0.6,0.4,1.1,0.4c0.3,0,0.7-0.1,1-0.3c0.4-0.3,0.5-0.7,0.5-0.9
			c0-0.4,0-0.8,0-1.1C110.6,18.5,110.6,18.2,110.6,17.9z"/>
		<path class="st0" d="M108.7,9.4c0.5,0,0.9-0.1,1.3-0.3c0.4-0.2,0.6-0.6,0.6-1c0-0.5-0.2-1-0.7-1.3c0,0,0,0,0,0
			c-0.4-0.2-0.9-0.4-1.5-0.4c-0.5,0-0.8,0.2-1,0.6c-0.1,0.3-0.2,0.7-0.2,1.2c0,0.3,0.1,0.6,0.3,0.8C107.9,9.3,108.2,9.4,108.7,9.4z"
			/>
		<path class="st0" d="M121.3,18.1c-0.5-0.4-0.9-0.3-1.3-0.2c-0.2,0.1-0.4,0.2-0.6,0.3c-0.6,0.3-1.1,0.5-1.5,0.5
			c-0.2,0-0.4,0-0.6-0.1c-0.2-0.1-0.4-0.1-0.6-0.2c-0.5-0.3-0.8-0.6-1-1c-0.2-0.4-0.3-0.8-0.3-1.4c0-0.5,0.1-1,0.3-1.4
			c0.2-0.4,0.5-0.7,0.9-1c0.4-0.2,0.7-0.3,1.1-0.3c0.2,0,0.5,0.1,0.9,0.6c0.2,0.2,0.4,0.4,0.5,0.5c0.2,0.1,0.4,0.2,0.7,0.2
			c0.8,0,1.3-0.4,1.3-1.2c0-0.5-0.2-1-0.6-1.4c-0.4-0.4-0.9-0.6-1.4-0.8c-1.5-0.5-2.9-0.3-4.1,0.4c-0.8,0.5-1.4,1.1-1.8,1.9
			c-0.4,0.8-0.7,1.7-0.7,2.7c0,0.9,0.2,1.8,0.7,2.5c0.5,0.7,1.1,1.3,1.9,1.7c0.8,0.4,1.6,0.6,2.5,0.6c0.6,0,1.2-0.1,1.8-0.2
			c0.6-0.2,1.2-0.4,1.6-0.7c0.5-0.4,0.7-0.8,0.7-1.3C121.7,18.6,121.7,18.3,121.3,18.1z"/>
	</g>
	<g id="XMLID_1_">
		<path id="XMLID_7_" class="st1" d="M14.5,22.1c0.1-0.7,0.4-1.4,1-1.9c0,0,0,0,0,0c1.9-1.9,1.5-5.5-1-8.1s-6.1-3-8.1-1c0,0,0,0,0,0
			c-0.5,0.5-1.2,0.9-1.9,1c-0.8,0.1-1.6,0.5-2.2,1.1c-1.5,1.5-1.5,4,0,5.5c0.4,0.4,0.8,0.7,1.2,0.9c1.6,0.7,2.8,2,3.5,3.5
			c0.2,0.4,0.5,0.9,0.9,1.2c1.5,1.5,4,1.5,5.5,0C14,23.7,14.4,22.9,14.5,22.1L14.5,22.1z"/>
		
			<ellipse id="XMLID_6_" transform="matrix(0.7071 -0.7071 0.7071 0.7071 1.6779 12.8715)" class="st2" cx="16.4" cy="4.4" rx="3.4" ry="2.7"/>
		
			<ellipse id="XMLID_5_" transform="matrix(0.7071 -0.7071 0.7071 0.7071 -1.5808 5.7752)" class="st2" cx="6.2" cy="4.8" rx="3.4" ry="2.7"/>
		
			<ellipse id="XMLID_4_" transform="matrix(0.7071 -0.7071 0.7071 0.7071 -0.8225 18.9063)" class="st3" cx="22.4" cy="10.4" rx="3.4" ry="2.7"/>
		
			<ellipse id="XMLID_3_" transform="matrix(0.7071 -0.7071 0.7071 0.7071 -8.0938 21.4943)" class="st3" cx="21.9" cy="20.5" rx="3.4" ry="2.7"/>
		<path id="XMLID_2_" class="st2" d="M14.5,12.1L5.5,21c0.6,0.6,1.1,1.3,1.4,2.1c0.2,0.4,0.5,0.9,0.9,1.2c1.5,1.5,4,1.5,5.5,0
			c0.6-0.6,1-1.4,1.1-2.2c0.1-0.7,0.4-1.4,1-1.9c0,0,0,0,0,0C17.5,18.2,17,14.6,14.5,12.1L14.5,12.1z"/>
	</g>
</g>
</svg>
