<?xml version="1.0" encoding="utf-8"?>
<!-- Generator: Adobe Illustrator 22.0.0, SVG Export Plug-In . SVG Version: 6.00 Build 0)  -->
<svg version="1.1" id="Layer_1" xmlns="http://www.w3.org/2000/svg" xmlns:xlink="http://www.w3.org/1999/xlink" x="0px" y="0px"
	 viewBox="0 0 612 792" style="enable-background:new 0 0 612 792;" xml:space="preserve">
<style type="text/css">
	.st0{fill:#2D78DA;}
	.st1{fill:#FFFFFF;}
</style>
<title></title>
<g id="icomoon-ignore">
</g>
<circle class="st0" cx="306" cy="396" r="290.5"/>
<g>
	<path class="st1" d="M441.8,192.4L441.8,192.4c-0.6-9.7-7.3-17.9-16.5-20.3c-9.2-2.5-18.9,1.4-24,9.6l-36.4,58.4l-20-43
		c-3.7-8.1-11.9-13.2-20.6-12.8c-8.8,0.3-16.5,5.9-19.7,14.2L279,264.7c-3.8-0.2-7.6-0.2-11.4,0c-31.8,2.2-59.9,21.7-73.9,50.4
		L76,326.2c-6.1,0.6-11.7,3.8-15.5,8.8c-3.7,5-5.2,11.4-4.2,17.6c8.5,49.7,34.2,93.8,72.3,124.1c35.5,28.2,78.8,42.9,124.1,41.8
		c4.2-40.5,8.5-83,9.4-113C264.4,334.9,364.4,257,381,269.4c16.5,18.8-23.8,44.1-2.6,65.8c20.5,21,25.9,35.1,41.1,58.8
		c39,60.8-66.7,61.6-66.7,61.6s82.8,63,101.2,94.7c4.7,8.1,8.7,16.6,12.4,25.1L441.8,192.4z"/>
	<polygon class="st1" points="367.4,495.5 317.7,495.5 317.7,536.3 278,536.3 278,587.2 317.7,587.2 317.7,628.1 367.4,628.1 
		367.4,587.2 407.1,587.2 407.1,536.3 367.4,536.3 	"/>
</g>
</svg>
